<?xml version="1.0" encoding="UTF-8" standalone="no"?>
<svg
   xmlns:dc="http://purl.org/dc/elements/1.1/"
   xmlns:cc="http://creativecommons.org/ns#"
   xmlns:rdf="http://www.w3.org/1999/02/22-rdf-syntax-ns#"
   xmlns:svg="http://www.w3.org/2000/svg"
   xmlns="http://www.w3.org/2000/svg"
   xmlns:sodipodi="http://sodipodi.sourceforge.net/DTD/sodipodi-0.dtd"
   xmlns:inkscape="http://www.inkscape.org/namespaces/inkscape"
   width="1200"
   height="1200"
   viewBox="0 0 1200 1200"
   id="svg4249"
   version="1.1"
   inkscape:version="0.91 r13725"
   sodipodi:docname="Ic_camera_alt_48px.svg">
  <metadata
     id="metadata4261">
    <rdf:RDF>
      <cc:Work
         rdf:about="">
        <dc:format>image/svg+xml</dc:format>
        <dc:type
           rdf:resource="http://purl.org/dc/dcmitype/StillImage" />
        <dc:title></dc:title>
      </cc:Work>
    </rdf:RDF>
  </metadata>
  <defs
     id="defs4259" />
  <sodipodi:namedview
     pagecolor="#ffffff"
     bordercolor="#666666"
     borderopacity="1"
     objecttolerance="10"
     gridtolerance="10"
     guidetolerance="10"
     inkscape:pageopacity="0"
     inkscape:pageshadow="2"
     inkscape:window-width="1440"
     inkscape:window-height="804"
     id="namedview4257"
     showgrid="false"
     showguides="true"
     inkscape:guide-bbox="true"
     inkscape:zoom="0.53166667"
     inkscape:cx="600"
     inkscape:cy="725.00603"
     inkscape:window-x="0"
     inkscape:window-y="1"
     inkscape:window-maximized="1"
     inkscape:current-layer="svg4249">
    <sodipodi:guide
       position="49.365754,48.01571"
       orientation="0,1"
       id="guide4815" />
    <sodipodi:guide
       position="48.035322,43.289317"
       orientation="1,0"
       id="guide4817" />
    <sodipodi:guide
       position="0,-1.8340218"
       orientation="1,0"
       id="guide4819" />
    <sodipodi:guide
       position="0,-1.8340218"
       orientation="0,1"
       id="guide4821" />
  </sodipodi:namedview>
  <g
     id="g4853"
     transform="matrix(25,0,0,25,0,-28800)">
    <path
       inkscape:connector-curvature="0"
       style="fill:#ff5555"
       id="path4253"
       d="m 18,1156 -3.660156,4 L 8,1160 c -2.21,0 -4,1.79 -4,4 l 0,24 c 0,2.21 1.79,4 4,4 l 0.3710938,0 c 2.2275332,-2.2022 5.1479282,-5.1123 8.7675782,-8.7402 C 15.210199,1181.4364 14,1178.8614 14,1176 c 0,-5.52 4.48,-10 10,-10 2.835055,0 5.390591,1.1865 7.210938,3.084 2.634595,-2.6652 5.841094,-5.9222 8.941406,-9.0684 C 40.100652,1160.0136 40.052178,1160 40,1160 l -6.339844,0 L 30,1156 l -12,0 z" />
    <path
       style="fill:none"
       inkscape:connector-curvature="0"
       id="path4255"
       d="m 0,1152 48,0 0,48 -48,0 z" />
    <path
       style="fill:#0044aa"
       inkscape:connector-curvature="0"
       id="path4825"
       d="m 40.055156,1160.2129 c -2.234583,2.209 -5.170058,5.1343 -8.8125,8.7851 1.900383,1.8207 3.089843,4.3773 3.089843,7.2149 0,5.52 -4.48,10 -10,10 -2.811132,0 -5.348673,-1.1657 -7.166015,-3.0352 -2.623107,2.6536 -5.817892,5.8973 -8.9023441,9.0274 0.02334,4e-4 0.04492,0.01 0.06836,0.01 l 32.0000001,0 c 2.21,0 4,-1.79 4,-4 l 0,-24 c 0,-2.21 -1.79,-4 -4,-4 l -0.277343,0 z" />
    <path
       style="fill:#0044aa"
       inkscape:connector-curvature="0"
       id="circle4832"
       d="m 24.221171,1169.1735 a 6.4000001,6.4000001 0 0 0 -6.40039,6.4004 6.4000001,6.4000001 0 0 0 2.082031,4.7129 c 2.566339,-2.5786 5.712214,-5.7565 8.996094,-9.0742 a 6.4000001,6.4000001 0 0 0 -4.677735,-2.0391 z" />
    <path
       style="fill:#ff5555"
       inkscape:connector-curvature="0"
       id="circle4841"
       d="m 28.530595,1170.9584 c -2.567146,2.5794 -5.717281,5.7577 -9.001954,9.0762 a 6.4000001,6.4000001 0 0 0 4.632813,1.9902 6.4000001,6.4000001 0 0 0 6.400391,-6.4004 6.4000001,6.4000001 0 0 0 -2.03125,-4.666 z" />
  </g>
</svg>
